<mxfile host="app.diagrams.net" modified="2021-08-18T21:29:00.957Z" agent="5.0 (Windows NT 10.0; Win64; x64) AppleWebKit/537.36 (KHTML, like Gecko) Chrome/91.0.4472.164 Safari/537.36 OPR/77.0.4054.277" etag="VKBby7xbpnSZW4wUW_s2" version="14.9.7" type="github">
  <diagram id="L8teDT4YcUjxgvzkZVUX" name="Page-1">
    <mxGraphModel dx="828" dy="521" grid="1" gridSize="10" guides="1" tooltips="1" connect="1" arrows="1" fold="1" page="1" pageScale="1" pageWidth="850" pageHeight="1100" math="0" shadow="0">
      <root>
        <mxCell id="0" />
        <mxCell id="1" parent="0" />
        <mxCell id="YUoJAOys_UIQfTASu8jf-1" value="L1:Librarian" style="shape=umlLifeline;perimeter=lifelinePerimeter;container=1;collapsible=0;recursiveResize=0;rounded=0;shadow=0;strokeWidth=1;" vertex="1" parent="1">
          <mxGeometry x="670" y="80" width="100" height="460" as="geometry" />
        </mxCell>
        <mxCell id="YUoJAOys_UIQfTASu8jf-2" value="" style="points=[];perimeter=orthogonalPerimeter;rounded=0;shadow=0;strokeWidth=1;" vertex="1" parent="YUoJAOys_UIQfTASu8jf-1">
          <mxGeometry x="45" y="70" width="10" height="380" as="geometry" />
        </mxCell>
        <mxCell id="YUoJAOys_UIQfTASu8jf-3" value="C1:Customer" style="shape=umlLifeline;perimeter=lifelinePerimeter;container=1;collapsible=0;recursiveResize=0;rounded=0;shadow=0;strokeWidth=1;" vertex="1" parent="1">
          <mxGeometry x="310" y="80" width="100" height="460" as="geometry" />
        </mxCell>
        <mxCell id="YUoJAOys_UIQfTASu8jf-4" value="" style="points=[];perimeter=orthogonalPerimeter;rounded=0;shadow=0;strokeWidth=1;" vertex="1" parent="YUoJAOys_UIQfTASu8jf-3">
          <mxGeometry x="45" y="70" width="10" height="380" as="geometry" />
        </mxCell>
        <mxCell id="YUoJAOys_UIQfTASu8jf-5" value="B1:Book" style="shape=umlLifeline;perimeter=lifelinePerimeter;container=1;collapsible=0;recursiveResize=0;rounded=0;shadow=0;strokeWidth=1;" vertex="1" parent="1">
          <mxGeometry x="1110" y="80" width="40" height="460" as="geometry" />
        </mxCell>
        <mxCell id="YUoJAOys_UIQfTASu8jf-6" value="" style="points=[];perimeter=orthogonalPerimeter;rounded=0;shadow=0;strokeWidth=1;" vertex="1" parent="YUoJAOys_UIQfTASu8jf-5">
          <mxGeometry x="15" y="70" width="10" height="380" as="geometry" />
        </mxCell>
        <mxCell id="YUoJAOys_UIQfTASu8jf-7" value="" style="shape=cylinder3;whiteSpace=wrap;html=1;boundedLbl=1;backgroundOutline=1;size=15;" vertex="1" parent="1">
          <mxGeometry x="1100" y="60" width="60" height="80" as="geometry" />
        </mxCell>
        <mxCell id="YUoJAOys_UIQfTASu8jf-8" value="" style="endArrow=classic;html=1;entryX=-0.5;entryY=0.126;entryDx=0;entryDy=0;entryPerimeter=0;" edge="1" parent="1" source="YUoJAOys_UIQfTASu8jf-3" target="YUoJAOys_UIQfTASu8jf-6">
          <mxGeometry width="50" height="50" relative="1" as="geometry">
            <mxPoint x="400" y="320" as="sourcePoint" />
            <mxPoint x="740" y="200" as="targetPoint" />
          </mxGeometry>
        </mxCell>
        <mxCell id="YUoJAOys_UIQfTASu8jf-9" value="select_book()" style="text;html=1;align=center;verticalAlign=middle;resizable=0;points=[];autosize=1;strokeColor=none;" vertex="1" parent="1">
          <mxGeometry x="760" y="180" width="90" height="20" as="geometry" />
        </mxCell>
        <mxCell id="YUoJAOys_UIQfTASu8jf-10" value="" style="endArrow=classic;html=1;exitX=0.5;exitY=0.237;exitDx=0;exitDy=0;exitPerimeter=0;entryX=1;entryY=0.069;entryDx=0;entryDy=0;entryPerimeter=0;" edge="1" parent="1" source="YUoJAOys_UIQfTASu8jf-6" target="YUoJAOys_UIQfTASu8jf-12">
          <mxGeometry relative="1" as="geometry">
            <mxPoint x="550" y="240" as="sourcePoint" />
            <mxPoint x="590" y="240" as="targetPoint" />
          </mxGeometry>
        </mxCell>
        <mxCell id="YUoJAOys_UIQfTASu8jf-11" value="Return_book" style="edgeLabel;resizable=0;html=1;align=center;verticalAlign=middle;" connectable="0" vertex="1" parent="YUoJAOys_UIQfTASu8jf-10">
          <mxGeometry relative="1" as="geometry" />
        </mxCell>
        <mxCell id="YUoJAOys_UIQfTASu8jf-12" value="B1:Book" style="shape=umlLifeline;perimeter=lifelinePerimeter;container=1;collapsible=0;recursiveResize=0;rounded=0;shadow=0;strokeWidth=1;" vertex="1" parent="1">
          <mxGeometry x="500" y="220" width="100" height="320" as="geometry" />
        </mxCell>
        <mxCell id="YUoJAOys_UIQfTASu8jf-13" value="" style="points=[];perimeter=orthogonalPerimeter;rounded=0;shadow=0;strokeWidth=1;" vertex="1" parent="YUoJAOys_UIQfTASu8jf-12">
          <mxGeometry x="45" y="70" width="10" height="240" as="geometry" />
        </mxCell>
        <mxCell id="YUoJAOys_UIQfTASu8jf-14" value="" style="endArrow=classic;html=1;exitX=0.5;exitY=0.237;exitDx=0;exitDy=0;exitPerimeter=0;" edge="1" parent="1">
          <mxGeometry relative="1" as="geometry">
            <mxPoint x="550" y="308.98999999999995" as="sourcePoint" />
            <mxPoint x="360" y="311" as="targetPoint" />
          </mxGeometry>
        </mxCell>
        <mxCell id="YUoJAOys_UIQfTASu8jf-15" value="Return_book" style="edgeLabel;resizable=0;html=1;align=center;verticalAlign=middle;" connectable="0" vertex="1" parent="YUoJAOys_UIQfTASu8jf-14">
          <mxGeometry relative="1" as="geometry" />
        </mxCell>
        <mxCell id="YUoJAOys_UIQfTASu8jf-16" value="" style="endArrow=classic;html=1;" edge="1" parent="1">
          <mxGeometry width="50" height="50" relative="1" as="geometry">
            <mxPoint x="360" y="350" as="sourcePoint" />
            <mxPoint x="710" y="350" as="targetPoint" />
          </mxGeometry>
        </mxCell>
        <mxCell id="YUoJAOys_UIQfTASu8jf-17" value="request_book(ISBN)" style="text;html=1;align=center;verticalAlign=middle;resizable=0;points=[];autosize=1;strokeColor=none;" vertex="1" parent="1">
          <mxGeometry x="550" y="330" width="120" height="20" as="geometry" />
        </mxCell>
        <mxCell id="YUoJAOys_UIQfTASu8jf-18" value="" style="endArrow=classic;html=1;entryX=1;entryY=0.069;entryDx=0;entryDy=0;entryPerimeter=0;" edge="1" parent="1">
          <mxGeometry relative="1" as="geometry">
            <mxPoint x="710" y="380" as="sourcePoint" />
            <mxPoint x="520" y="379.5999999999999" as="targetPoint" />
          </mxGeometry>
        </mxCell>
        <mxCell id="YUoJAOys_UIQfTASu8jf-19" value="Issue_book(ISBN)" style="edgeLabel;resizable=0;html=1;align=center;verticalAlign=middle;" connectable="0" vertex="1" parent="YUoJAOys_UIQfTASu8jf-18">
          <mxGeometry relative="1" as="geometry">
            <mxPoint y="-10" as="offset" />
          </mxGeometry>
        </mxCell>
        <mxCell id="YUoJAOys_UIQfTASu8jf-20" value="A1:Agreement" style="shape=umlLifeline;perimeter=lifelinePerimeter;container=1;collapsible=0;recursiveResize=0;rounded=0;shadow=0;strokeWidth=1;" vertex="1" parent="1">
          <mxGeometry x="420" y="360" width="100" height="180" as="geometry" />
        </mxCell>
        <mxCell id="YUoJAOys_UIQfTASu8jf-21" value="" style="points=[];perimeter=orthogonalPerimeter;rounded=0;shadow=0;strokeWidth=1;" vertex="1" parent="YUoJAOys_UIQfTASu8jf-20">
          <mxGeometry x="45" y="70" width="10" height="100" as="geometry" />
        </mxCell>
        <mxCell id="YUoJAOys_UIQfTASu8jf-22" value="" style="endArrow=classic;html=1;entryX=1;entryY=0.069;entryDx=0;entryDy=0;entryPerimeter=0;" edge="1" parent="1">
          <mxGeometry relative="1" as="geometry">
            <mxPoint x="460" y="460" as="sourcePoint" />
            <mxPoint x="370" y="459.9999999999999" as="targetPoint" />
          </mxGeometry>
        </mxCell>
        <mxCell id="YUoJAOys_UIQfTASu8jf-23" value="Issue_book(ISBN)" style="edgeLabel;resizable=0;html=1;align=center;verticalAlign=middle;" connectable="0" vertex="1" parent="YUoJAOys_UIQfTASu8jf-22">
          <mxGeometry relative="1" as="geometry">
            <mxPoint y="-10" as="offset" />
          </mxGeometry>
        </mxCell>
        <mxCell id="YUoJAOys_UIQfTASu8jf-24" value="&lt;font style=&quot;font-size: 17px&quot;&gt;Issuance of Book&lt;/font&gt;" style="text;html=1;align=center;verticalAlign=middle;resizable=0;points=[];autosize=1;strokeColor=none;" vertex="1" parent="1">
          <mxGeometry x="680" width="150" height="20" as="geometry" />
        </mxCell>
      </root>
    </mxGraphModel>
  </diagram>
</mxfile>
